<svg width="174" height="40" viewBox="0 0 174 40" fill="none" xmlns="http://www.w3.org/2000/svg">
<g clip-path="url(#clip0_4620_1687)">
<path d="M30.6931 0H30.5923C26.5843 0 23.0396 2.1005 21.0007 5.20004C18.9617 2.1005 15.4171 0 11.409 0H11.3083C8.30032 0.0283892 5.42523 1.2313 3.30778 3.34733C1.19033 5.46336 0.00163287 8.32151 0 11.3007C0 15.0002 1.636 20.2494 4.82606 24.5688C10.904 32.7992 21.0007 40 21.0007 40C21.0007 40 31.0974 32.8006 37.1739 24.5688C40.3653 20.2494 42 15.0002 42 11.3007C41.9984 8.32174 40.8099 5.46379 38.6927 3.3478C36.5755 1.23181 33.7008 0.0287375 30.6931 0ZM29.2518 25.202C28.7954 25.2003 28.3501 25.0619 27.9745 24.8051C27.5988 24.5482 27.3104 24.1848 27.1471 23.7627H24.7508C24.593 23.7617 24.4395 23.712 24.3116 23.6204C24.1838 23.5288 24.088 23.4 24.0376 23.2519L23.3015 21.0556L20.9725 29.1157C20.9271 29.2709 20.8322 29.4073 20.7018 29.5044C20.5715 29.6016 20.4129 29.6542 20.2498 29.6545H20.2028C20.0326 29.6463 19.8704 29.5806 19.7433 29.4682C19.6162 29.3559 19.5318 29.2037 19.5044 29.0372L17.1041 14.7394L15.3499 23.2C15.3097 23.3607 15.2163 23.5034 15.0845 23.6054C14.9528 23.7074 14.7904 23.7628 14.6232 23.7627H11.2478C11.1466 23.7669 11.0456 23.7508 10.9509 23.7154C10.8561 23.68 10.7696 23.626 10.6965 23.5565C10.6234 23.4871 10.5652 23.4038 10.5255 23.3115C10.4857 23.2193 10.4652 23.12 10.4652 23.0197C10.4652 22.9194 10.4857 22.8202 10.5255 22.7279C10.5652 22.6356 10.6234 22.5523 10.6965 22.4829C10.7696 22.4135 10.8561 22.3594 10.9509 22.324C11.0456 22.2886 11.1466 22.2725 11.2478 22.2768H14.0322L16.5171 10.9016C16.5579 10.7334 16.6564 10.5845 16.7958 10.4803C16.9352 10.3761 17.1068 10.323 17.2813 10.3303C17.4558 10.3375 17.6223 10.4045 17.7524 10.5199C17.8825 10.6353 17.9682 10.7918 17.9946 10.9628L20.4459 25.5479L22.5332 18.3365C22.5767 18.1846 22.6686 18.0507 22.7952 17.9548C22.9218 17.8589 23.0763 17.8062 23.2357 17.8044H23.2505C23.4084 17.8044 23.5622 17.8538 23.69 17.9456C23.8178 18.0373 23.9132 18.1667 23.9624 18.3152L25.2935 22.2808H27.1175C27.2472 21.8905 27.4832 21.5434 27.7996 21.2776C28.1159 21.0119 28.5002 20.8378 28.9101 20.7747C29.3199 20.7116 29.7394 20.7619 30.1223 20.92C30.5051 21.0781 30.8364 21.338 31.0796 21.6708C31.3228 22.0036 31.4684 22.3965 31.5003 22.8061C31.5323 23.2157 31.4494 23.626 31.2607 23.9919C31.072 24.3577 30.785 24.6649 30.4312 24.8794C30.0774 25.0938 29.6707 25.2074 29.2559 25.2074L29.2518 25.202Z" fill="#52B1E8"/>
<path d="M54 9.00802H57.192L62.448 18.104H62.64L67.896 9.00802H71.112V26.192H67.896V17.72L68.088 14.84H67.896L63.528 22.544H61.584L57.192 14.84H57L57.192 17.72V26.192H54V9.00802Z" fill="#52B1E8"/>
<path d="M85.3301 23.36C84.7861 24.32 84.0501 25.096 83.1221 25.688C82.2101 26.28 81.0901 26.576 79.7621 26.576C78.8661 26.576 78.0341 26.424 77.2661 26.12C76.5141 25.8 75.8581 25.36 75.2981 24.8C74.7381 24.24 74.2981 23.584 73.9781 22.832C73.6741 22.064 73.5221 21.224 73.5221 20.312C73.5221 19.464 73.6741 18.664 73.9781 17.912C74.2821 17.144 74.7061 16.48 75.2501 15.92C75.7941 15.344 76.4341 14.888 77.1701 14.552C77.9221 14.216 78.7461 14.048 79.6421 14.048C80.5861 14.048 81.4261 14.208 82.1621 14.528C82.8981 14.832 83.5141 15.264 84.0101 15.824C84.5061 16.368 84.8821 17.016 85.1381 17.768C85.3941 18.52 85.5221 19.336 85.5221 20.216C85.5221 20.328 85.5221 20.424 85.5221 20.504C85.5061 20.6 85.4981 20.688 85.4981 20.768C85.4821 20.848 85.4741 20.936 85.4741 21.032H76.6181C76.6821 21.512 76.8101 21.928 77.0021 22.28C77.2101 22.616 77.4581 22.904 77.7461 23.144C78.0501 23.368 78.3781 23.536 78.7301 23.648C79.0821 23.744 79.4421 23.792 79.8101 23.792C80.5301 23.792 81.1221 23.632 81.5861 23.312C82.0661 22.976 82.4421 22.56 82.7141 22.064L85.3301 23.36ZM82.4741 18.8C82.4581 18.592 82.3861 18.36 82.2581 18.104C82.1461 17.848 81.9701 17.608 81.7301 17.384C81.5061 17.16 81.2181 16.976 80.8661 16.832C80.5301 16.688 80.1221 16.616 79.6421 16.616C78.9701 16.616 78.3781 16.808 77.8661 17.192C77.3541 17.576 76.9941 18.112 76.7861 18.8H82.4741Z" fill="#52B1E8"/>
<path d="M89.2821 12.728C89.0101 12.728 88.7461 12.68 88.4901 12.584C88.2501 12.472 88.0341 12.328 87.8421 12.152C87.6661 11.96 87.5221 11.744 87.4101 11.504C87.3141 11.264 87.2661 11 87.2661 10.712C87.2661 10.424 87.3141 10.16 87.4101 9.92002C87.5221 9.68002 87.6661 9.47202 87.8421 9.29602C88.0341 9.10402 88.2501 8.96002 88.4901 8.86402C88.7461 8.75202 89.0101 8.69602 89.2821 8.69602C89.8421 8.69602 90.3221 8.89602 90.7221 9.29602C91.1221 9.68002 91.3221 10.152 91.3221 10.712C91.3221 11.272 91.1221 11.752 90.7221 12.152C90.3221 12.536 89.8421 12.728 89.2821 12.728ZM87.7221 26.192V14.432H90.8661V26.192H87.7221Z" fill="#52B1E8"/>
<path d="M96.693 15.968H96.885C97.253 15.376 97.749 14.912 98.373 14.576C98.997 14.224 99.709 14.048 100.509 14.048C101.245 14.048 101.893 14.168 102.453 14.408C103.013 14.648 103.469 14.992 103.821 15.44C104.189 15.872 104.461 16.4 104.637 17.024C104.829 17.632 104.925 18.312 104.925 19.064V26.192H101.781V19.448C101.781 18.6 101.589 17.976 101.205 17.576C100.837 17.16 100.293 16.952 99.573 16.952C99.141 16.952 98.757 17.048 98.421 17.24C98.101 17.416 97.821 17.664 97.581 17.984C97.357 18.288 97.181 18.656 97.053 19.088C96.941 19.504 96.885 19.952 96.885 20.432V26.192H93.741V14.432H96.693V15.968Z" fill="#52B1E8"/>
<path d="M113.162 26.576C112.426 26.576 111.722 26.472 111.05 26.264C110.378 26.056 109.762 25.744 109.202 25.328C108.642 24.912 108.154 24.408 107.738 23.816C107.322 23.208 106.994 22.504 106.754 21.704L109.802 20.504C110.026 21.368 110.418 22.088 110.978 22.664C111.538 23.224 112.274 23.504 113.186 23.504C113.522 23.504 113.842 23.464 114.146 23.384C114.466 23.288 114.746 23.16 114.986 23C115.242 22.824 115.442 22.608 115.586 22.352C115.73 22.096 115.802 21.8 115.802 21.464C115.802 21.144 115.746 20.856 115.634 20.6C115.522 20.344 115.33 20.104 115.058 19.88C114.802 19.656 114.458 19.44 114.026 19.232C113.61 19.024 113.09 18.808 112.466 18.584L111.41 18.2C110.946 18.04 110.474 17.824 109.994 17.552C109.53 17.28 109.106 16.952 108.722 16.568C108.338 16.184 108.018 15.736 107.762 15.224C107.522 14.696 107.402 14.104 107.402 13.448C107.402 12.776 107.53 12.152 107.786 11.576C108.058 10.984 108.434 10.472 108.914 10.04C109.41 9.59202 109.994 9.24802 110.666 9.00802C111.354 8.75202 112.114 8.62402 112.946 8.62402C113.81 8.62402 114.554 8.74402 115.178 8.98402C115.818 9.20802 116.354 9.50402 116.786 9.87202C117.234 10.224 117.594 10.616 117.866 11.048C118.138 11.48 118.338 11.888 118.466 12.272L115.61 13.472C115.45 12.992 115.154 12.56 114.722 12.176C114.306 11.792 113.73 11.6 112.994 11.6C112.29 11.6 111.706 11.768 111.242 12.104C110.778 12.424 110.546 12.848 110.546 13.376C110.546 13.888 110.77 14.328 111.218 14.696C111.666 15.048 112.378 15.392 113.354 15.728L114.434 16.088C115.122 16.328 115.746 16.608 116.306 16.928C116.882 17.232 117.37 17.6 117.77 18.032C118.186 18.464 118.498 18.96 118.706 19.52C118.93 20.064 119.042 20.696 119.042 21.416C119.042 22.312 118.858 23.088 118.49 23.744C118.138 24.384 117.682 24.912 117.122 25.328C116.562 25.744 115.93 26.056 115.226 26.264C114.522 26.472 113.834 26.576 113.162 26.576Z" fill="#3F3D56"/>
<path d="M132.487 23.192C131.975 24.184 131.255 25 130.327 25.64C129.415 26.264 128.271 26.576 126.895 26.576C125.983 26.576 125.143 26.424 124.375 26.12C123.623 25.8 122.967 25.36 122.407 24.8C121.863 24.24 121.431 23.584 121.111 22.832C120.807 22.064 120.655 21.224 120.655 20.312C120.655 19.4 120.807 18.56 121.111 17.792C121.431 17.024 121.863 16.368 122.407 15.824C122.967 15.264 123.623 14.832 124.375 14.528C125.143 14.208 125.983 14.048 126.895 14.048C128.255 14.048 129.399 14.36 130.327 14.984C131.255 15.608 131.935 16.416 132.367 17.408L129.487 18.608C129.215 18.064 128.863 17.656 128.431 17.384C128.015 17.096 127.487 16.952 126.847 16.952C126.431 16.952 126.039 17.032 125.671 17.192C125.303 17.352 124.975 17.576 124.687 17.864C124.415 18.152 124.199 18.504 124.039 18.92C123.879 19.336 123.799 19.8 123.799 20.312C123.799 20.824 123.879 21.288 124.039 21.704C124.199 22.12 124.415 22.472 124.687 22.76C124.975 23.048 125.303 23.272 125.671 23.432C126.039 23.592 126.431 23.672 126.847 23.672C127.503 23.672 128.055 23.528 128.503 23.24C128.967 22.936 129.335 22.504 129.607 21.944L132.487 23.192Z" fill="#3F3D56"/>
<path d="M139.856 14.048C140.768 14.048 141.6 14.208 142.352 14.528C143.12 14.832 143.776 15.264 144.32 15.824C144.88 16.368 145.312 17.024 145.616 17.792C145.936 18.56 146.096 19.4 146.096 20.312C146.096 21.224 145.936 22.064 145.616 22.832C145.312 23.6 144.88 24.264 144.32 24.824C143.776 25.368 143.12 25.8 142.352 26.12C141.6 26.424 140.768 26.576 139.856 26.576C138.944 26.576 138.104 26.424 137.336 26.12C136.584 25.8 135.928 25.368 135.368 24.824C134.824 24.264 134.392 23.6 134.072 22.832C133.768 22.064 133.616 21.224 133.616 20.312C133.616 19.4 133.768 18.56 134.072 17.792C134.392 17.024 134.824 16.368 135.368 15.824C135.928 15.264 136.584 14.832 137.336 14.528C138.104 14.208 138.944 14.048 139.856 14.048ZM139.856 23.672C140.256 23.672 140.64 23.6 141.008 23.456C141.392 23.296 141.728 23.072 142.016 22.784C142.304 22.496 142.528 22.144 142.688 21.728C142.864 21.312 142.952 20.84 142.952 20.312C142.952 19.784 142.864 19.312 142.688 18.896C142.528 18.48 142.304 18.128 142.016 17.84C141.728 17.552 141.392 17.336 141.008 17.192C140.64 17.032 140.256 16.952 139.856 16.952C139.44 16.952 139.048 17.032 138.68 17.192C138.312 17.336 137.984 17.552 137.696 17.84C137.408 18.128 137.176 18.48 137 18.896C136.84 19.312 136.76 19.784 136.76 20.312C136.76 20.84 136.84 21.312 137 21.728C137.176 22.144 137.408 22.496 137.696 22.784C137.984 23.072 138.312 23.296 138.68 23.456C139.048 23.6 139.44 23.672 139.856 23.672Z" fill="#3F3D56"/>
<path d="M147.903 14.432H150.855V15.848H151.047C151.335 15.352 151.783 14.928 152.391 14.576C152.999 14.224 153.751 14.048 154.647 14.048C155.399 14.048 156.111 14.208 156.783 14.528C157.471 14.832 158.071 15.264 158.583 15.824C159.111 16.368 159.527 17.024 159.831 17.792C160.135 18.56 160.287 19.4 160.287 20.312C160.287 21.224 160.135 22.064 159.831 22.832C159.527 23.6 159.111 24.264 158.583 24.824C158.071 25.368 157.471 25.8 156.783 26.12C156.111 26.424 155.399 26.576 154.647 26.576C153.751 26.576 152.999 26.4 152.391 26.048C151.783 25.696 151.335 25.272 151.047 24.776H150.855L151.047 26.456V31.376H147.903V14.432ZM153.999 23.672C154.415 23.672 154.807 23.592 155.175 23.432C155.559 23.272 155.895 23.048 156.183 22.76C156.471 22.472 156.703 22.12 156.879 21.704C157.055 21.288 157.143 20.824 157.143 20.312C157.143 19.8 157.055 19.336 156.879 18.92C156.703 18.504 156.471 18.152 156.183 17.864C155.895 17.576 155.559 17.352 155.175 17.192C154.807 17.032 154.415 16.952 153.999 16.952C153.583 16.952 153.183 17.032 152.799 17.192C152.431 17.336 152.103 17.552 151.815 17.84C151.527 18.128 151.295 18.48 151.119 18.896C150.943 19.312 150.855 19.784 150.855 20.312C150.855 20.84 150.943 21.312 151.119 21.728C151.295 22.144 151.527 22.496 151.815 22.784C152.103 23.072 152.431 23.296 152.799 23.456C153.183 23.6 153.583 23.672 153.999 23.672Z" fill="#3F3D56"/>
<path d="M173.432 23.36C172.888 24.32 172.152 25.096 171.224 25.688C170.312 26.28 169.192 26.576 167.864 26.576C166.968 26.576 166.136 26.424 165.368 26.12C164.616 25.8 163.96 25.36 163.4 24.8C162.84 24.24 162.4 23.584 162.08 22.832C161.776 22.064 161.624 21.224 161.624 20.312C161.624 19.464 161.776 18.664 162.08 17.912C162.384 17.144 162.808 16.48 163.352 15.92C163.896 15.344 164.536 14.888 165.272 14.552C166.024 14.216 166.848 14.048 167.744 14.048C168.688 14.048 169.528 14.208 170.264 14.528C171 14.832 171.616 15.264 172.112 15.824C172.608 16.368 172.984 17.016 173.24 17.768C173.496 18.52 173.624 19.336 173.624 20.216C173.624 20.328 173.624 20.424 173.624 20.504C173.608 20.6 173.6 20.688 173.6 20.768C173.584 20.848 173.576 20.936 173.576 21.032H164.72C164.784 21.512 164.912 21.928 165.104 22.28C165.312 22.616 165.56 22.904 165.848 23.144C166.152 23.368 166.48 23.536 166.832 23.648C167.184 23.744 167.544 23.792 167.912 23.792C168.632 23.792 169.224 23.632 169.688 23.312C170.168 22.976 170.544 22.56 170.816 22.064L173.432 23.36ZM170.576 18.8C170.56 18.592 170.488 18.36 170.36 18.104C170.248 17.848 170.072 17.608 169.832 17.384C169.608 17.16 169.32 16.976 168.968 16.832C168.632 16.688 168.224 16.616 167.744 16.616C167.072 16.616 166.48 16.808 165.968 17.192C165.456 17.576 165.096 18.112 164.888 18.8H170.576Z" fill="#3F3D56"/>
</g>
<defs>
<clipPath id="clip0_4620_1687">
<path d="M0 10C0 4.47715 4.47715 0 10 0H163.624C169.147 0 173.624 4.47715 173.624 10V30C173.624 35.5228 169.147 40 163.624 40H10C4.47716 40 0 35.5228 0 30V10Z" fill="white"/>
</clipPath>
</defs>
</svg>
