<svg width="42" height="40" viewBox="0 0 42 40" fill="none" xmlns="http://www.w3.org/2000/svg">
<g clip-path="url(#clip0_4622_1468)">
<path d="M30.6931 0H30.5923C26.5843 0 23.0396 2.1005 21.0007 5.20004C18.9617 2.1005 15.4171 0 11.409 0H11.3083C8.30032 0.0283892 5.42523 1.2313 3.30778 3.34733C1.19033 5.46336 0.00163287 8.32151 0 11.3007C0 15.0002 1.636 20.2494 4.82606 24.5688C10.904 32.7992 21.0007 40 21.0007 40C21.0007 40 31.0974 32.8006 37.1739 24.5688C40.3653 20.2494 42 15.0002 42 11.3007C41.9984 8.32174 40.8099 5.46379 38.6927 3.3478C36.5755 1.23181 33.7008 0.0287375 30.6931 0ZM29.2518 25.202C28.7954 25.2003 28.3501 25.0619 27.9745 24.8051C27.5988 24.5482 27.3104 24.1848 27.1471 23.7627H24.7508C24.593 23.7617 24.4395 23.712 24.3116 23.6204C24.1838 23.5288 24.088 23.4 24.0376 23.2519L23.3015 21.0556L20.9725 29.1157C20.9271 29.2709 20.8322 29.4073 20.7018 29.5044C20.5715 29.6016 20.4129 29.6542 20.2498 29.6545H20.2028C20.0326 29.6463 19.8704 29.5806 19.7433 29.4682C19.6162 29.3559 19.5318 29.2037 19.5044 29.0372L17.1041 14.7394L15.3499 23.2C15.3097 23.3607 15.2163 23.5034 15.0845 23.6054C14.9528 23.7074 14.7904 23.7628 14.6232 23.7627H11.2478C11.1466 23.7669 11.0456 23.7508 10.9509 23.7154C10.8561 23.68 10.7696 23.626 10.6965 23.5565C10.6234 23.4871 10.5652 23.4038 10.5255 23.3115C10.4857 23.2193 10.4652 23.12 10.4652 23.0197C10.4652 22.9194 10.4857 22.8202 10.5255 22.7279C10.5652 22.6356 10.6234 22.5523 10.6965 22.4829C10.7696 22.4135 10.8561 22.3594 10.9509 22.324C11.0456 22.2886 11.1466 22.2725 11.2478 22.2768H14.0322L16.5171 10.9016C16.5579 10.7334 16.6564 10.5845 16.7958 10.4803C16.9352 10.3761 17.1068 10.323 17.2813 10.3303C17.4558 10.3375 17.6223 10.4045 17.7524 10.5199C17.8825 10.6353 17.9682 10.7918 17.9946 10.9628L20.4459 25.5479L22.5332 18.3365C22.5767 18.1846 22.6686 18.0507 22.7952 17.9548C22.9218 17.8589 23.0763 17.8062 23.2357 17.8044H23.2505C23.4084 17.8044 23.5622 17.8538 23.69 17.9456C23.8178 18.0373 23.9132 18.1667 23.9624 18.3152L25.2935 22.2808H27.1175C27.2472 21.8905 27.4832 21.5434 27.7996 21.2776C28.1159 21.0119 28.5002 20.8378 28.9101 20.7747C29.3199 20.7116 29.7394 20.7619 30.1223 20.92C30.5051 21.0782 30.8364 21.338 31.0796 21.6708C31.3228 22.0036 31.4684 22.3965 31.5003 22.8061C31.5323 23.2157 31.4494 23.626 31.2607 23.9919C31.072 24.3577 30.785 24.6649 30.4312 24.8794C30.0774 25.0938 29.6707 25.2074 29.2559 25.2074L29.2518 25.202Z" fill="#52B1E8"/>
</g>
<defs>
<clipPath id="clip0_4622_1468">
<path d="M0 10C0 4.47715 4.47715 0 10 0H32C37.5228 0 42 4.47715 42 10V30C42 35.5228 37.5228 40 32 40H10C4.47715 40 0 35.5228 0 30V10Z" fill="white"/>
</clipPath>
</defs>
</svg>
